<svg xmlns="http://www.w3.org/2000/svg" viewBox="0 0 256 256">
<rect x="8" y="8" width="240" height="240" rx="54" fill="rgb(244,237,223)" stroke="rgb(214,201,174)" stroke-width="2"/>
<circle cx="128.0" cy="128.0" r="68" fill="none" stroke="rgba(176,137,78,0.27)" stroke-width="2"/>
<circle cx="128.0" cy="128.0" r="106" fill="none" stroke="rgba(176,137,78,0.27)" stroke-width="2"/>
<line x1="128.0" y1="128.0" x2="128.0" y2="22.0" stroke="rgba(176,137,78,0.43)" stroke-width="2" stroke-linecap="round"/>
<line x1="138.7" y1="71.8" x2="117.3" y2="71.8" stroke="rgb(46,125,107)" stroke-width="5" stroke-linecap="round"/>
<line x1="98.1" y1="101.4" x2="157.9" y2="101.4" stroke="rgb(46,125,107)" stroke-width="5" stroke-linecap="round"/>
<line x1="137.3" y1="128.0" x2="118.7" y2="128.0" stroke="rgb(46,125,107)" stroke-width="5" stroke-linecap="round"/>
<line x1="153.5" y1="154.6" x2="102.5" y2="154.6" stroke="rgb(46,125,107)" stroke-width="5" stroke-linecap="round"/>
<line x1="102.9" y1="184.2" x2="153.1" y2="184.2" stroke="rgb(46,125,107)" stroke-width="5" stroke-linecap="round"/>
<path d="M 98.0 54.0 L 98.7 57.1 L 100.7 60.3 L 104.0 63.4 L 108.3 66.6 L 113.6 69.7 L 119.5 72.9 L 125.8 76.0 L 132.2 79.2 L 138.4 82.3 L 144.1 85.5 L 149.1 88.6 L 153.2 91.8 L 156.1 94.9 L 157.7 98.1 L 157.9 101.2 L 156.8 104.4 L 154.4 107.5 L 150.8 110.7 L 146.1 113.8 L 140.6 117.0 L 134.6 120.1 L 128.2 123.3 L 121.8 126.4 L 115.7 129.6 L 110.2 132.7 L 105.5 135.9 L 101.8 139.0 L 99.3 142.2 L 98.1 145.3 L 98.3 148.5 L 99.8 151.6 L 102.6 154.8 L 106.6 157.9 L 111.5 161.1 L 117.2 164.2 L 123.4 167.4 L 129.8 170.5 L 136.1 173.7 L 142.1 176.8 L 147.4 180.0 L 151.8 183.1 L 155.1 186.3 L 157.2 189.4 L 158.0 192.6 L 157.4 195.7 L 155.5 198.9 L 152.3 202.0" fill="none" stroke="rgb(196,138,62)" stroke-width="6" stroke-linecap="round" stroke-linejoin="round"/>
<path d="M 158.0 54.0 L 157.3 57.1 L 155.3 60.3 L 152.0 63.4 L 147.7 66.6 L 142.4 69.7 L 136.5 72.9 L 130.2 76.0 L 123.8 79.2 L 117.6 82.3 L 111.9 85.5 L 106.9 88.6 L 102.8 91.8 L 99.9 94.9 L 98.3 98.1 L 98.1 101.2 L 99.2 104.4 L 101.6 107.5 L 105.2 110.7 L 109.9 113.8 L 115.4 117.0 L 121.4 120.1 L 127.8 123.3 L 134.2 126.4 L 140.3 129.6 L 145.8 132.7 L 150.5 135.9 L 154.2 139.0 L 156.7 142.2 L 157.9 145.3 L 157.7 148.5 L 156.2 151.6 L 153.4 154.8 L 149.4 157.9 L 144.5 161.1 L 138.8 164.2 L 132.6 167.4 L 126.2 170.5 L 119.9 173.7 L 113.9 176.8 L 108.6 180.0 L 104.2 183.1 L 100.9 186.3 L 98.8 189.4 L 98.0 192.6 L 98.6 195.7 L 100.5 198.9 L 103.7 202.0" fill="none" stroke="rgb(168,106,44)" stroke-width="6" stroke-linecap="round" stroke-linejoin="round"/>
</svg>
